# xmcd
#
# Track frame offsets:
#	150
#	3170
#	23374
#	41137
#	62572
#	80016
#	97956
#	114489
#	142430
#	172277
#	195227
#	217845
#	242874
#
# Disc length: 3471 seconds
#
# Revision: 0
# Processed by: cddbd v1.5.1PL2 Copyright (c) Steve Scherf et al.
# Submitted via: dBpowerAMP V4.0
#
DISCID=ab0d8d0d
DTITLE=John Legend - Solo Sessions Vol. 1:  Llive at the Knitting Factory
DYEAR=2003
DGENRE=
TTITLE0=Introduction by J. Ivy
TTITLE1=Lifted
TTITLE2=Do What I Gotta Do
TTITLE3=She Don't Have To KNow
TTITLE4=Don't Let Me Be Misunderstood
TTITLE5=Sun Comes Up
TTITLE6=Stay With You
TTITLE7=So High featuring J. Ivy
TTITLE8=If This World Were Mine featuring Imani Uzuri
TTITLE9=All Falls Down featuring Kanye West
TTITLE10=Motherless Chile
TTITLE11=Refuge
TTITLE12=Must Be The Way
EXTD=
EXTT0=
EXTT1=
EXTT2=
EXTT3=
EXTT4=
EXTT5=
EXTT6=
EXTT7=
EXTT8=
EXTT9=
EXTT10=
EXTT11=
EXTT12=
PLAYORDER=
